<?xml version="1.0" encoding="UTF-8"?>
<svg xmlns="http://www.w3.org/2000/svg" version="1.1" viewBox="0 0 637.5 86.6">
  <defs>
    <style>
      .cls-1 {
        fill: #00000f;
      }
    </style>
  </defs>
  <!-- Generator: Adobe Illustrator 28.6.0, SVG Export Plug-In . SVG Version: 1.2.0 Build 709)  -->
  <g>
    <g id="Layer_2">
      <g id="Layer_1-2">
        <g>
          <path class="cls-1" d="M637.5,64.5c-.6,1.8-1.1,3.7-1.9,5.4-3.3,7.6-9.7,11.4-17.2,13.7-6.9,2.1-14,2.2-21,1.7-7.7-.5-14.9-2.8-20.4-8.9-3.5-3.8-5.2-8.4-6.2-13.3-.4-2-.6-4.2-.9-6.3h19.8c.3,1.4.6,2.9,1,4.4,1.3,4.9,4.7,7.7,9.5,8.7,4.2.9,8.4.6,12.5-.8,4.5-1.6,6.5-6.1,4-9.8-1-1.5-3-2.6-4.8-3.2-6.4-2.2-12.9-4.1-19.3-6.3-5.3-1.8-10.4-4-14.4-8-6-5.9-7.7-13.1-5.8-21.2,2.4-10.1,9.7-15.3,19.2-17.7,9.2-2.3,18.5-2.2,27.5,1.3,8.4,3.2,13.7,9.2,15.4,18.2.3,1.8.4,3.6.6,5.6h-19.5c-.7-5.2-3.1-9-8.6-10.2-3.5-.8-7.1-.8-10.5.5-3,1.1-5.5,4.1-5.2,6.1.5,3.3,2.7,5.4,5.7,6.5,4.4,1.6,8.8,3,13.2,4.5,5.4,1.9,10.9,3.7,16.2,6,6.1,2.8,9.6,8,10.8,14.6,0,.2.3.4.5.6v8h0Z"/>
          <path class="cls-1" d="M0,62.3c1.5-3.2,2.6-6.7,4.6-9.6,3.1-4.5,7.8-6.8,13.2-7.7,6-.9,11.3.5,16,4.1,4.9,3.7,7.6,8.7,8,14.9.5,7-1.8,12.8-7,17.5-2.7,2.5-6,4-9.5,4.7-7.5,1.4-14.1-.4-19.5-5.8-3-3-4.8-6.6-5.4-10.7,0-.2-.3-.4-.5-.6v-6.7h0Z"/>
          <path class="cls-1" d="M66.9,0c1.7.4,3.4.8,5.1,1.3,7.6,2.3,12.1,7.5,13.9,14.9,2.8,11.3-4,22.5-15.3,25.4-11.3,2.8-23.3-4.3-25.7-16.2-2.2-11.4,4.7-22.4,16.5-24.9.9-.2,1.8-.4,2.6-.5h2.7Z"/>
          <path class="cls-1" d="M22.3,0c2.1.6,4.3,1.1,6.4,1.7,7.3,2.2,13.2,11.1,13.3,18.4,0,6.9-2.1,12.7-7.4,17.1-4.7,4-10.2,5.7-16.5,4.7-9.8-1.6-15.4-7.4-17.7-16.8,0,0-.2-.1-.4-.2,0-2.4,0-4.7,0-7.1.2-.1.4-.2.4-.4C1.8,10,5.9,4.8,12.8,1.9c2.1-.9,4.5-1.3,6.8-1.9h2.7Z"/>
          <path class="cls-1" d="M452.8,3.7v16.1h-40.8v14.4h40.7v16.3h-40.7v16.1h40.7v16.3h-61.6V3.7h61.6,0Z"/>
          <path class="cls-1" d="M546.5,83h-20.8V20h-22.7V3.7h66.1v16.1h-22.6v63.1h0Z"/>
          <path class="cls-1" d="M481,3.7v62.1h37.4v17.1h-57.6V3.7h20.2Z"/>
          <path class="cls-1" d="M362.6,83V3.8h20.1v79.2h-20.1Z"/>
          <path class="cls-1" d="M44.6,65.4c0-12.1,9.3-20.7,20.9-20.8,11.5,0,21.4,9.1,20.9,22-.4,10.8-9,20.1-21,20.1-11.7,0-21.1-9.3-20.8-21.2h0Z"/>
          <path class="cls-1" d="M225.2,70v-23h6.4v36.2c-1.7,0-3.4,0-5.1,0-.5,0-1.1-.6-1.4-1.1-5.5-7.9-11-15.9-16.8-24.3v25.4h-6.6v-36.2c2.1,0,4.3,0,6.4,0,.6,0,1.2.7,1.6,1.2,4.9,7.1,9.7,14.2,14.5,21.3.2.3.4.5.6.8.1,0,.3-.1.4-.2h0Z"/>
          <path class="cls-1" d="M103.1,40.4V3.6c2.3,0,4.7,0,7,0,3.8.1,7.7,0,11.4.7,3.8.8,6.1,3.8,6.6,7.6.5,3.1-.5,6.1-3.2,8.1-.2.1-.3.3-.5.6,2.3,1,4.8,2,5.3,4.6.5,2.4.7,4.9.3,7.2-.6,3.3-3.2,5.5-6.3,6.5-2.5.8-5.1,1.2-7.7,1.4-4.2.2-8.4,0-12.9,0h0ZM109.8,34.5c3.6-.2,7.1-.3,10.5-.7,1.9-.2,3.8-2.7,3.7-4.6-.2-2-1.3-3.7-3.2-4-3.6-.6-7.3-.7-11.1-1v9c0,.3,0,.6.2,1.3h0ZM109.7,19c3-.2,5.7-.3,8.4-.7,2.1-.3,3.7-2.3,3.7-4.2s-1.7-4-3.5-4.2c-2.8-.2-5.7,0-8.5,0v9.2h0Z"/>
          <path class="cls-1" d="M162.8,65c0,4.9-1.4,9.3-4.3,13.1-2.3,3-5.6,4.8-9.3,5.4-5,.9-9.9.3-14.4-2.8-3.5-2.5-5.4-5.8-6.3-9.7-1.4-6.2-.9-12.4,2.9-17.8,3.1-4.3,7.4-6.5,12.6-6.8,4.1-.2,8,.6,11.4,3,3.7,2.5,5.5,6.1,6.5,10.2.4,1.8.4,3.6.7,5.4h0ZM155.6,65.1c.2,0,.4-.1.6-.2-.9-2.7-1.4-5.5-2.7-7.9-3.2-6.2-12-6.3-15.9-.9-3.3,4.5-3.4,9.4-1.8,14.4,2.4,7.9,11.8,9.8,16.7,4.1,2.4-2.8,3.3-5.9,3.1-9.5h0Z"/>
          <path class="cls-1" d="M154.4,23.5c3,5.7,5.8,11.2,8.8,16.9-2.5,0-4.6.1-6.6,0-.6,0-1.3-.8-1.6-1.4-1.6-2.9-3-5.9-4.4-8.8-1.3-2.7-3.1-4.6-6.5-4-.8.1-1.6,0-2.6,0v14.1h-6.5V3.5c6.4.7,12.8-1.1,19.1,1.3,3.6,1.4,5.8,4.5,6.1,8.3.3,4.9-1.4,8.4-5.7,10.4h0ZM141.4,20.1c2.6,0,5.1.1,7.6,0,2.5-.2,4.4-2.5,4.4-5.1,0-2.7-1.6-4.9-4.3-5.1-2.5-.2-5.1,0-7.8,0v10.3Z"/>
          <path class="cls-1" d="M280,3.7h6.5v36.6h-6.4v-15.7h-17.1v15.7h-6.5V3.8h6.3v14.3h17.1V3.7h0Z"/>
          <path class="cls-1" d="M190,46.8h5.5c.3,0,.6,0,1.1.1,0,4.3,0,8.6,0,12.9,0,4.5,0,9-.5,13.5-.9,6.1-4.3,9.3-10.6,10.2-4.1.6-8.4.6-12.4-1.4-4-2-6-5.4-6.1-9.5-.4-8.5-.1-17-.1-25.7h6.6v23.2c0,5.4,4.6,8.9,9.8,7.7,6.3-1.5,6.4-3.9,6.7-9.3.4-6.3,0-12.7,0-19.1v-2.6h0Z"/>
          <path class="cls-1" d="M226.6,32.6c3.4.8,6.5,1.9,9.7,2.3,1.9.2,4-.4,5.7-1.3,1-.5,1.8-2.2,1.8-3.4,0-2.2-1.9-3.5-3.8-4.3-2.1-.9-4.2-1.5-6.4-2.3-4.5-1.5-7.6-4.1-8.3-9.1-.6-3.9,2.6-8.9,7.2-10.4,5.5-1.8,10.8-.9,16.2,1.1v6.1c-3.1-.7-6.1-1.6-9.2-2.1-2.1-.3-4.3-.1-6.1,1.6-1.6,1.4-1.5,3-.1,4.2,1.4,1.3,3.2,2.2,5,3,3.6,1.6,7.6,2.3,10.4,5.3,4.1,4.2,2.8,12.3-2.4,15.2-6,3.4-12.1,3-18.2.9-4.1-1.4-4-1.6-2-5.5.3-.6.6-1.1.6-1.2h0Z"/>
          <path class="cls-1" d="M261.7,54.1c-7-3.2-12.1-2-15.2,1.4-4.2,4.6-4.6,12-1.3,17.5,2.9,4.8,7.3,5.6,16.6,3.1.1.2.3.3.3.5.4,1.7.7,3.4,1.1,5.2-2.1.6-4.1,1.3-6.3,1.7-3.4.6-6.8.4-10.1-.8-5.7-2-8.8-6.1-10.1-11.9-1.3-5.6-.8-11,1.9-16.1,2.7-5.2,7.1-8,12.8-8.3,3.4-.2,6.9.7,10.4,1.2,1.7.2,2,1.2,1.4,2.7-.5,1.2-.9,2.4-1.5,3.8h0Z"/>
          <path class="cls-1" d="M127.1,81.4c-5.8,3.7-18.2,3.2-23.4-2.9-4.6-5.5-5.8-17.5-1.4-24.4,4.1-6.5,12.6-10.4,24.8-5.6-.6,1.7-1.2,3.5-2,5.1,0,.2-1.4,0-2-.2-3.7-1.2-7.4-1.7-11,.4-4.9,2.8-6.4,9.5-5.4,14.3.7,3.4,2.1,6.4,5.2,8.3,3.8,2.3,7.7,1.9,11.5.3,1.5-.6,2.1-.5,2.5,1.2.2,1.2.8,2.3,1.2,3.6h0Z"/>
          <path class="cls-1" d="M207.6,3.8v5.9h-11.4v30.6h-6.6V9.8h-11.9V3.8h29.9Z"/>
          <path class="cls-1" d="M280.1,82.9v-36h6.4v30.5h14.1v5.6h-20.6Z"/>
          <path class="cls-1" d="M167,3.7h6.3v36.5h-6.3V3.7Z"/>
          <path class="cls-1" d="M218.2,40.3h-6.3V3.8h6.3v36.5Z"/>
          <path class="cls-1" d="M274.4,83h-6.3v-36.1h6.3v36.1Z"/>
        </g>
      </g>
    </g>
  </g>
</svg>