<?xml version="1.0" encoding="UTF-8"?>
<svg id="Layer_2" data-name="Layer 2" xmlns="http://www.w3.org/2000/svg" viewBox="0 0 500.93 115.01">
  <defs>
    <style>
      .cls-1 {
        fill: #00000f;
        stroke-width: 0px;
      }
    </style>
  </defs>
  <g id="Layer_1-2" data-name="Layer 1">
    <g>
      <path class="cls-1" d="m500.93,50.67c-.49,1.42-.89,2.88-1.49,4.25-2.62,5.93-7.58,8.95-13.54,10.73-5.42,1.62-11,1.7-16.53,1.32-6.08-.42-11.71-2.23-16.01-7.01-2.71-3.01-4.11-6.58-4.9-10.44-.33-1.61-.48-3.26-.73-4.99h15.52c.24,1.1.45,2.31.78,3.49,1.05,3.81,3.66,6.03,7.44,6.85,3.32.72,6.63.47,9.85-.67,3.52-1.24,5.11-4.81,3.14-7.66-.8-1.16-2.34-2.03-3.73-2.51-5.02-1.76-10.13-3.25-15.17-4.94-4.16-1.39-8.16-3.14-11.34-6.3-4.71-4.67-6.02-10.33-4.53-16.66,1.87-7.97,7.58-12.05,15.05-13.93,7.24-1.83,14.53-1.72,21.58,1.01,6.59,2.55,10.78,7.25,12.12,14.27.26,1.39.33,2.83.49,4.37h-15.3c-.58-4.07-2.45-7.09-6.73-8.03-2.77-.6-5.56-.61-8.24.35-2.33.83-4.34,3.19-4.1,4.82.39,2.63,2.1,4.26,4.5,5.13,3.44,1.24,6.95,2.32,10.39,3.55,4.26,1.52,8.59,2.89,12.69,4.76,4.82,2.2,7.52,6.25,8.45,11.46.03.18.24.33.37.49v6.29Z"/>
      <path class="cls-1" d="m0,48.93c1.18-2.54,2.06-5.28,3.61-7.57,2.42-3.57,6.11-5.37,10.4-6.03,4.68-.73,8.89.37,12.6,3.19,3.85,2.93,5.97,6.85,6.29,11.73.36,5.47-1.4,10.03-5.47,13.73-2.14,1.95-4.68,3.17-7.45,3.71-5.86,1.14-11.06-.33-15.32-4.59-2.33-2.33-3.77-5.16-4.29-8.43-.03-.18-.24-.33-.37-.49,0-1.75,0-3.49,0-5.24Z"/>
      <path class="cls-1" d="m52.54,0c1.34.35,2.7.65,4.02,1.05,5.93,1.77,9.49,5.87,10.95,11.71,2.21,8.85-3.11,17.7-12,19.92-8.9,2.22-18.35-3.35-20.15-12.72-1.72-8.97,3.7-17.63,13-19.53C49.06.28,49.75.14,50.44,0c.7,0,1.4,0,2.1,0Z"/>
      <path class="cls-1" d="m17.51,0c1.67.45,3.35.86,5.01,1.36,5.78,1.73,10.38,8.72,10.43,14.44.05,5.46-1.67,9.98-5.81,13.43-3.72,3.1-8.04,4.45-12.98,3.66-7.69-1.23-12.07-5.82-13.88-13.16-.02-.07-.18-.11-.28-.16C0,17.71,0,15.84,0,13.98c.12-.11.32-.2.34-.32C1.38,7.84,4.65,3.76,10.09,1.5c1.69-.7,3.54-1.01,5.32-1.5.7,0,1.4,0,2.1,0Z"/>
      <path class="cls-1" d="m355.76,2.94v12.65h-32.02v11.33h32.01v12.84h-32.01v12.66h32v12.78h-48.4V2.94h48.41Z"/>
      <path class="cls-1" d="m429.44,65.21h-16.3V15.71h-17.86V2.94h51.91v12.65h-17.75v49.62Z"/>
      <path class="cls-1" d="m377.9,2.94v48.8h29.35v13.47h-45.25V2.94h15.9Z"/>
      <path class="cls-1" d="m284.91,65.18V2.96h15.83v62.22h-15.83Z"/>
      <path class="cls-1" d="m35.08,51.42c.03-9.51,7.28-16.3,16.43-16.36,9.03-.06,16.82,7.16,16.44,17.24-.32,8.47-7.1,15.77-16.52,15.75-9.16-.02-16.55-7.32-16.35-16.63Z"/>
      <path class="cls-1" d="m176.95,54.98v-18.1h5.02v28.42c-1.36,0-2.69.07-4-.04-.39-.03-.84-.48-1.1-.85-4.35-6.25-8.67-12.52-13.23-19.12v19.92h-5.15v-28.46c1.69,0,3.37-.07,5.03.05.43.03.93.56,1.22.98,3.82,5.56,7.62,11.15,11.42,16.73.15.22.32.42.48.63.11-.05.22-.1.33-.14Z"/>
      <path class="cls-1" d="m81.03,31.75V2.84c1.84,0,3.69-.06,5.52.01,3,.11,6.07-.02,8.98.56,3.02.6,4.76,3.02,5.2,5.99.37,2.46-.36,4.75-2.54,6.33-.14.1-.22.26-.43.5,1.8.78,3.76,1.55,4.16,3.62.36,1.85.58,3.87.22,5.69-.51,2.56-2.48,4.3-4.92,5.1-1.94.63-4.02.96-6.06,1.06-3.31.17-6.63.05-10.14.05Zm5.24-4.63c2.85-.18,5.56-.25,8.24-.57,1.53-.18,2.99-2.12,2.87-3.63-.13-1.54-1.05-2.94-2.5-3.18-2.85-.48-5.77-.52-8.76-.75,0,2.69,0,4.89,0,7.1,0,.22.05.44.13,1.03Zm-.06-12.23c2.34-.18,4.47-.25,6.57-.54,1.66-.23,2.89-1.8,2.89-3.34,0-1.36-1.31-3.16-2.77-3.28-2.22-.18-4.47-.05-6.69-.05v7.2Z"/>
      <path class="cls-1" d="m127.95,51.05c.07,3.84-1.07,7.27-3.39,10.27-1.83,2.36-4.44,3.77-7.29,4.25-3.95.67-7.8.23-11.27-2.24-2.72-1.93-4.22-4.59-4.92-7.62-1.13-4.91-.75-9.72,2.3-13.99,2.42-3.4,5.78-5.11,9.94-5.33,3.25-.16,6.26.5,8.99,2.34,2.89,1.95,4.33,4.82,5.13,8.05.34,1.38.36,2.84.52,4.27Zm-5.65.11c.16-.05.32-.11.48-.16-.68-2.09-1.08-4.32-2.09-6.23-2.55-4.84-9.41-4.94-12.51-.69-2.57,3.52-2.63,7.36-1.43,11.32,1.89,6.25,9.26,7.67,13.09,3.23,1.9-2.21,2.59-4.66,2.46-7.46Z"/>
      <path class="cls-1" d="m121.3,18.49c2.35,4.51,4.56,8.76,6.9,13.26-1.96,0-3.58.08-5.18-.05-.47-.04-1.04-.62-1.3-1.1-1.21-2.28-2.35-4.6-3.49-6.92-1.05-2.14-2.46-3.6-5.12-3.12-.61.11-1.26.02-2.04.02v11.04h-5.1V2.77c5.02.54,10.09-.83,15,1.04,2.83,1.08,4.56,3.56,4.76,6.51.26,3.82-1.14,6.6-4.45,8.17Zm-10.21-2.73c2.05,0,4.01.1,5.96-.03,1.94-.12,3.45-1.97,3.5-4.01.05-2.14-1.28-3.87-3.37-4.04-2-.16-4.02-.03-6.09-.03v8.11Z"/>
      <path class="cls-1" d="m220,2.92h5.1v28.73h-4.99v-12.33h-13.44v12.31h-5.07V2.98h4.96v11.28h13.44V2.92Z"/>
      <path class="cls-1" d="m149.27,36.75c1.63,0,2.97,0,4.31,0,.22,0,.44.05.85.11,0,3.4.05,6.76-.01,10.11-.06,3.53.07,7.1-.41,10.57-.67,4.78-3.4,7.28-8.34,8.03-3.24.49-6.57.49-9.72-1.09-3.13-1.58-4.68-4.27-4.81-7.43-.27-6.68-.08-13.37-.08-20.19h5.16v1.79c0,5.47,0,10.94,0,16.41,0,4.23,3.6,6.99,7.7,6.02,4.96-1.18,5.04-3.06,5.28-7.29.29-4.99.07-10.01.07-15.01,0-.63,0-1.25,0-2.05Z"/>
      <path class="cls-1" d="m178.01,25.59c2.67.66,5.11,1.5,7.62,1.78,1.47.16,3.17-.33,4.51-1.01.76-.39,1.44-1.77,1.42-2.69-.03-1.77-1.53-2.73-3.02-3.38-1.62-.71-3.32-1.22-5-1.78-3.5-1.18-5.95-3.22-6.55-7.14-.47-3.07,2.01-6.98,5.62-8.13,4.3-1.37,8.52-.72,12.73.82v4.76c-2.41-.56-4.81-1.26-7.25-1.65-1.68-.26-3.38-.08-4.79,1.22-1.22,1.12-1.17,2.36-.11,3.29,1.13.99,2.53,1.74,3.91,2.37,2.8,1.28,5.93,1.84,8.19,4.2,3.19,3.34,2.16,9.66-1.89,11.94-4.69,2.64-9.5,2.37-14.33.71-3.2-1.1-3.16-1.24-1.58-4.32.23-.45.47-.89.51-.97Z"/>
      <path class="cls-1" d="m205.61,42.52c-5.5-2.48-9.51-1.56-11.98,1.1-3.33,3.58-3.61,9.45-.99,13.76,2.28,3.75,5.73,4.41,13.02,2.45.08.12.22.24.25.38.3,1.35.58,2.71.87,4.07-1.64.46-3.26,1.05-4.93,1.34-2.67.45-5.34.3-7.93-.62-4.46-1.59-6.88-4.82-7.92-9.38-1-4.43-.61-8.61,1.46-12.65,2.1-4.11,5.62-6.26,10.06-6.5,2.7-.14,5.45.58,8.18.96,1.31.18,1.57.94,1.07,2.1-.4.93-.74,1.89-1.16,2.98Z"/>
      <path class="cls-1" d="m99.85,63.93c-4.56,2.93-14.34,2.53-18.37-2.31-3.6-4.32-4.53-13.77-1.09-19.2,3.25-5.13,9.87-8.17,19.52-4.38-.49,1.34-.93,2.71-1.54,4.01-.08.17-1.07,0-1.59-.16-2.93-.91-5.83-1.32-8.66.32-3.84,2.23-5.03,7.45-4.28,11.23.52,2.64,1.61,5.01,4.04,6.49,2.97,1.82,6.03,1.53,9.05.21,1.16-.5,1.68-.36,1.94.92.19.94.62,1.83.98,2.86Z"/>
      <path class="cls-1" d="m163.1,2.98v4.61h-8.94v24.05h-5.2V7.7h-9.36V2.98h23.5Z"/>
      <path class="cls-1" d="m262.83,92.41c.96,2.37-1.15,2.1-2.15,2.75,1.69,3.35-.2,7.14-4.89,7.51-.7.06-1.43-.11-2.09.05-.44.11-.79.61-1.18.94.31.32.58.86.92.91,1.42.19,2.89.42,4.3.27,2.41-.25,4.82,1.37,5.25,3.52.42,2.09-1.18,4.87-3.52,5.7-2.99,1.07-6.11,1.29-9.17.37-1.7-.51-3.15-1.64-3.25-3.62-.1-2.19,1.48-3.2,3.05-3.84-.34-.94-.99-1.86-.89-2.69.11-.89.92-1.69,1.46-2.6-1.61-1.16-2.42-2.83-2.28-5.05.17-2.55,2.33-4.68,5.26-4.66,3.06.02,6.12.28,9.18.43Zm-7.6,15.88c-.87,0-1.81-.21-2.58.06-.71.25-1.44.94-1.75,1.62-.18.4.27,1.38.72,1.73,1.29,1.02,5.55.58,6.81-.65.39-.38.82-1.16.67-1.54-.2-.52-.88-1.03-1.45-1.19-.76-.2-1.61-.05-2.42-.05Zm1.94-10.93c0-1.94-.76-2.92-2.3-2.95-1.5-.03-2.36,1.02-2.36,2.87,0,1.94.77,2.93,2.3,2.96,1.5.03,2.36-1.02,2.37-2.88Z"/>
      <path class="cls-1" d="m290.93,107.85h-4.26v-8.87h-8.49v8.82h-4.07v-20.63h3.91v8.13h8.55v-8.12h4.36v20.67Z"/>
      <path class="cls-1" d="m220.1,65.16v-28.31h5.06v23.94h11.1v4.36h-16.17Z"/>
      <path class="cls-1" d="m230.69,92.46c3.06-.12,2.57-.88,3.71,1.87,1.44-1.95,3.38-2.56,5.66-2.39,2.96.22,4.97,2.24,5.07,5.44.11,3.42.02,6.85.02,10.41h-4.44c0-3.25-.02-6.54,0-9.83.01-1.32-.5-2.32-1.81-2.56-1.4-.26-2.89-.14-3.54,1.43-.4.98-.65,2.08-.69,3.14-.1,2.55-.03,5.11-.03,7.81h-3.96v-15.31Z"/>
      <path class="cls-1" d="m131.19,2.92h4.93v28.71h-4.93V2.92Z"/>
      <path class="cls-1" d="m171.46,31.69h-4.92V2.97h4.92v28.71Z"/>
      <path class="cls-1" d="m189.73,104.06c.2,3.18.22,3.29-3.47,4.05-3.75.77-8.81-.9-9.75-5.29-.73-3.41-.12-7.88,2.75-9.63,2.81-1.71,5.67-1.7,8.36-.35,2.49,1.25,3.31,3.79,3.24,6.54-.01.45-.04.9-.07,1.49h-10.16c.2,4.21,2.87,4.55,6.69,3.88.78-.14,1.53-.44,2.41-.7Zm-2.42-5.91c-.83-1.18-1.24-2.41-2.02-2.71-.99-.38-2.4-.31-3.38.12-.68.3-.96,1.52-1.56,2.58h6.96Z"/>
      <path class="cls-1" d="m309.26,100.9h-10.29c.41,4.28,2.93,4.51,6.8,3.84.78-.13,1.53-.43,2.44-.7,0,.55-.07,1.07.01,1.56.21,1.3-.4,1.79-1.61,2.1-3.71.96-7.2.92-10.11-1.95-2.47-2.44-2.67-8.14-.33-11.22,2.05-2.7,6.09-3.5,9.75-1.75,2.25,1.08,3.19,3.31,3.34,5.79.04.69,0,1.39,0,2.34Zm-10.08-2.74h5.81c.17-1.92-.76-3.06-2.52-3.17-2.12-.14-3.22.86-3.29,3.17Z"/>
      <path class="cls-1" d="m338.62,104.06c.12,3.74.76,3.34-3.88,4.1-4.78.78-9.93-1.85-9.64-7.95.13-2.8.51-5.32,3.09-7.02,2.68-1.78,5.54-1.7,8.19-.4,2.5,1.23,3.39,3.71,3.36,6.47,0,.46,0,.93,0,1.67h-10.29c.39,4.26,2.93,4.48,6.79,3.82.78-.13,1.53-.43,2.38-.68Zm-2.45-5.91c-.81-1.17-1.22-2.4-1.99-2.71-.99-.39-2.4-.31-3.38.11-.69.3-.97,1.52-1.59,2.59h6.96Z"/>
      <path class="cls-1" d="m215.6,65.23h-4.92v-28.36h4.92v28.36Z"/>
      <path class="cls-1" d="m166.13,90.78h-5.54v-3.63h15.47v3.62h-5.48v17.06h-4.45v-17.05Z"/>
      <path class="cls-1" d="m193.42,104.09c1.53.32,2.96.69,4.42.91.7.11,1.46.04,2.14-.13.42-.1,1.08-.58,1.06-.83-.06-.55-.34-1.3-.78-1.56-1.07-.65-2.28-1.04-3.42-1.58-1.76-.84-3.23-1.89-3.44-4.11-.32-3.35,2.08-4.59,5.21-4.76,2.17-.12,4.38.44,6.8.73-.62,1.37-1.04,2.29-1.5,3.29-1.07-.31-2.14-.76-3.24-.88-1-.11-2.04.14-3.06.23-.08.23-.15.47-.23.7.52.48.96,1.09,1.56,1.43,1.45.8,2.98,1.45,4.46,2.2,2.04,1.05,2.19,3.06,1.7,4.78-.33,1.18-1.58,2.4-2.73,2.98-2.33,1.18-4.91.95-7.42.35-1.05-.25-1.82-.7-1.55-2,.1-.5.02-1.04.02-1.73Z"/>
      <path class="cls-1" d="m209.7,95.41c-.63-.05-1.2-.1-1.76-.15-.38-1.14-.16-1.81.97-2.37.71-.35,1.4-1.22,1.63-2,.5-1.74,1.32-2.61,3.39-1.89v3.24h4.46v3.04h-4.4c0,2.68-.09,5.17.03,7.64.07,1.44,1.51,2.25,3.11,1.93.55-.11,1.09-.32,1.63-.49.04.16.11.27.09.38-.1.94.03,2.54-.37,2.69-1.47.53-3.14.87-4.69.75-2.48-.19-3.9-2.1-3.91-4.63-.01-2.56-.02-5.12-.03-7.68,0-.11-.07-.22-.15-.47Z"/>
      <path class="cls-1" d="m316.97,107.85h-3.97v-15.3q2.3-.57,3.83,2.2c1.64-1.65,3.23-3.46,6.09-2.6,0,.7-.01,1.44,0,2.18.03,1.2-.43,1.74-1.75,1.73-2.86-.03-4.21,1.41-4.21,4.28,0,2.44,0,4.88,0,7.51Z"/>
      <path class="cls-1" d="m221.88,92.39h3.92v15.44h-3.92v-15.44Z"/>
      <path class="cls-1" d="m224.03,85.99c1.19-.11,1.98.7,2.12,2.05.13,1.22-.97,2.08-2.4,2.05-1.47-.04-2.38-.87-2.31-2.15.08-1.43.95-1.97,2.58-1.95Z"/>
    </g>
  </g>
</svg>