<?xml version="1.0" encoding="UTF-8"?>
<svg id="Layer_2" xmlns="http://www.w3.org/2000/svg" viewBox="0 0 11.58 18.52">
  <defs>
    <style>
      .cls-1 {
        fill: #00000f;
      }
    </style>
  </defs>
  <g id="Layer_1-2" data-name="Layer_1">
    <g id="SvgjsG1033">
      <path class="cls-1" d="M5.79,2.32c1.92,0,3.47,1.56,3.47,3.48,0,1.1-.5,2.1-1.37,2.76-1.31.99-1.83,2.08-2.02,3h-.17c-.18-.92-.71-2.01-2.02-3-.87-.66-1.37-1.67-1.37-2.76,0-1.92,1.56-3.48,3.47-3.48M5.79,0C2.59,0,0,2.6,0,5.8c0,1.9.89,3.56,2.3,4.62.65.49,1.18,1.12,1.18,1.98v1.48h4.63v-1.48c0-.87.53-1.5,1.18-1.98,1.4-1.06,2.3-2.72,2.3-4.62,0-3.2-2.59-5.8-5.79-5.8h0Z"/>
      <rect class="cls-1" x="3.47" y="16.2" width="4.63" height="2.32"/>
    </g>
  </g>
</svg>