<?xml version="1.0" encoding="UTF-8"?>
<svg xmlns="http://www.w3.org/2000/svg" version="1.1" viewBox="0 0 39.1 51.2">
  <defs>
    <style>
      .cls-1 {
        fill: #fbcf39;
      }
    </style>
  </defs>
  <!-- Generator: Adobe Illustrator 28.6.0, SVG Export Plug-In . SVG Version: 1.2.0 Build 709)  -->
  <g>
    <g id="Layer_2">
      <g id="Layer_1-2">
        <g id="SvgjsG1033">
          <path class="cls-1" d="M19.5,11.3c3.9,0,7.2,3.2,7.2,7.2s-1,4.3-2.8,5.7c-2.7,2-3.8,4.3-4.2,6.2h-.3c-.4-1.9-1.5-4.1-4.2-6.2-1.8-1.4-2.8-3.4-2.8-5.7,0-4,3.2-7.2,7.2-7.2M19.5,6.5c-6.6,0-11.9,5.4-11.9,12s1.8,7.3,4.7,9.5c1.3,1,2.4,2.3,2.4,4.1v3h9.5v-3c0-1.8,1.1-3.1,2.4-4.1,2.9-2.2,4.7-5.6,4.7-9.5,0-6.6-5.3-12-11.9-12h0Z"/>
          <rect class="cls-1" x="14.8" y="39.9" width="9.5" height="4.8"/>
        </g>
      </g>
    </g>
  </g>
</svg>